<svg preserveAspectRatio="none" width="100%" height="100%" overflow="visible" style="display: block;" viewBox="0 0 341 93" fill="none" xmlns="http://www.w3.org/2000/svg">
<g id="Subtract">
<path d="M335.269 0C336.404 0 337.461 0.331111 338.352 0.900391C336.366 1.87869 335 3.92308 335 6.28613C335 9.49616 337.521 12.1177 340.691 12.2783L341 12.2861V16.5713C337.686 16.5713 335 19.2576 335 22.5713C335 25.885 337.686 28.5713 341 28.5713V32.8574C337.686 32.8574 335 35.5437 335 38.8574C335 42.0675 337.521 44.689 340.691 44.8496L341 44.8574V49.1426C337.686 49.1426 335 51.829 335 55.1426C335 58.4563 337.686 61.1426 341 61.1426V65.4287C337.686 65.4287 335 68.115 335 71.4287C335 74.6389 337.521 77.2603 340.691 77.4209L341 77.4287V81.7139C337.686 81.7139 335 84.4004 335 87.7139C335 89.7063 335.972 91.4713 337.467 92.5625C336.79 92.8439 336.047 93 335.269 93H207V91C207 90.4477 206.552 90 206 90C205.448 90 205 90.4477 205 91V93H5.73145C2.56625 93 0 90.4337 0 87.2686V5.73145C0 2.56625 2.56625 0 5.73145 0H335.269ZM206 81C205.448 81 205 81.4477 205 82V86C205 86.5523 205.448 87 206 87C206.552 87 207 86.5523 207 86V82C207 81.4477 206.552 81 206 81ZM206 72C205.448 72 205 72.4477 205 73V77C205 77.5523 205.448 78 206 78C206.552 78 207 77.5523 207 77V73C207 72.4477 206.552 72 206 72ZM206 63C205.448 63 205 63.4477 205 64V68C205 68.5523 205.448 69 206 69C206.552 69 207 68.5523 207 68V64C207 63.4477 206.552 63 206 63ZM206 54C205.448 54 205 54.4477 205 55V59C205 59.5523 205.448 60 206 60C206.552 60 207 59.5523 207 59V55C207 54.4477 206.552 54 206 54ZM206 45C205.448 45 205 45.4477 205 46V50C205 50.5523 205.448 51 206 51C206.552 51 207 50.5523 207 50V46C207 45.4477 206.552 45 206 45ZM206 36C205.448 36 205 36.4477 205 37V41C205 41.5523 205.448 42 206 42C206.552 42 207 41.5523 207 41V37C207 36.4477 206.552 36 206 36ZM206 27C205.448 27 205 27.4477 205 28V32C205 32.5523 205.448 33 206 33C206.552 33 207 32.5523 207 32V28C207 27.4477 206.552 27 206 27ZM206 18C205.448 18 205 18.4477 205 19V23C205 23.5523 205.448 24 206 24C206.552 24 207 23.5523 207 23V19C207 18.4477 206.552 18 206 18ZM206 9C205.448 9 205 9.44772 205 10V14C205 14.5523 205.448 15 206 15C206.552 15 207 14.5523 207 14V10C207 9.44772 206.552 9 206 9ZM206 0C205.448 0 205 0.447715 205 1V5C205 5.55228 205.448 6 206 6C206.552 6 207 5.55228 207 5V1C207 0.447715 206.552 0 206 0Z" fill="var(--fill-0, #D9D9D9)"/>
<path d="M335.269 0C336.404 0 337.461 0.331111 338.352 0.900391C336.366 1.87869 335 3.92308 335 6.28613C335 9.49616 337.521 12.1177 340.691 12.2783L341 12.2861V16.5713C337.686 16.5713 335 19.2576 335 22.5713C335 25.885 337.686 28.5713 341 28.5713V32.8574C337.686 32.8574 335 35.5437 335 38.8574C335 42.0675 337.521 44.689 340.691 44.8496L341 44.8574V49.1426C337.686 49.1426 335 51.829 335 55.1426C335 58.4563 337.686 61.1426 341 61.1426V65.4287C337.686 65.4287 335 68.115 335 71.4287C335 74.6389 337.521 77.2603 340.691 77.4209L341 77.4287V81.7139C337.686 81.7139 335 84.4004 335 87.7139C335 89.7063 335.972 91.4713 337.467 92.5625C336.79 92.8439 336.047 93 335.269 93H207V91C207 90.4477 206.552 90 206 90C205.448 90 205 90.4477 205 91V93H5.73145C2.56625 93 0 90.4337 0 87.2686V5.73145C0 2.56625 2.56625 0 5.73145 0H335.269ZM206 81C205.448 81 205 81.4477 205 82V86C205 86.5523 205.448 87 206 87C206.552 87 207 86.5523 207 86V82C207 81.4477 206.552 81 206 81ZM206 72C205.448 72 205 72.4477 205 73V77C205 77.5523 205.448 78 206 78C206.552 78 207 77.5523 207 77V73C207 72.4477 206.552 72 206 72ZM206 63C205.448 63 205 63.4477 205 64V68C205 68.5523 205.448 69 206 69C206.552 69 207 68.5523 207 68V64C207 63.4477 206.552 63 206 63ZM206 54C205.448 54 205 54.4477 205 55V59C205 59.5523 205.448 60 206 60C206.552 60 207 59.5523 207 59V55C207 54.4477 206.552 54 206 54ZM206 45C205.448 45 205 45.4477 205 46V50C205 50.5523 205.448 51 206 51C206.552 51 207 50.5523 207 50V46C207 45.4477 206.552 45 206 45ZM206 36C205.448 36 205 36.4477 205 37V41C205 41.5523 205.448 42 206 42C206.552 42 207 41.5523 207 41V37C207 36.4477 206.552 36 206 36ZM206 27C205.448 27 205 27.4477 205 28V32C205 32.5523 205.448 33 206 33C206.552 33 207 32.5523 207 32V28C207 27.4477 206.552 27 206 27ZM206 18C205.448 18 205 18.4477 205 19V23C205 23.5523 205.448 24 206 24C206.552 24 207 23.5523 207 23V19C207 18.4477 206.552 18 206 18ZM206 9C205.448 9 205 9.44772 205 10V14C205 14.5523 205.448 15 206 15C206.552 15 207 14.5523 207 14V10C207 9.44772 206.552 9 206 9ZM206 0C205.448 0 205 0.447715 205 1V5C205 5.55228 205.448 6 206 6C206.552 6 207 5.55228 207 5V1C207 0.447715 206.552 0 206 0Z" fill="url(#paint0_linear_13_15)"/>
</g>
<defs>
<linearGradient id="paint0_linear_13_15" x1="277.48" y1="5.4213" x2="-4.41701" y2="146.502" gradientUnits="userSpaceOnUse">
<stop stop-color="#AE1E2B"/>
<stop offset="1" stop-color="#9C1723"/>
</linearGradient>
</defs>
</svg>
